<svg width="45" height="46" viewBox="0 0 45 46" fill="none" xmlns="http://www.w3.org/2000/svg">
<circle cx="22.5759" cy="23.1189" r="21.2419" stroke="#322D2D" stroke-width="2.1602"/>
<g clip-path="url(#clip0_625_1881)">
<path d="M35.0903 28.2588L32.1792 25.3477C35.5183 18.341 30.386 10.1582 22.5745 10.1582C14.7766 10.1582 9.62408 18.3269 12.9698 25.3477L10.0587 28.2588C9.24856 29.069 9.59304 30.4516 10.6916 30.7862L13.9252 31.7683L14.9074 35.0019C15.2406 36.0961 16.6204 36.4477 17.4348 35.6348L21.6845 31.3851C22.2687 31.4335 22.8604 31.4351 23.4646 31.3851L27.7143 35.6348C28.5258 36.4462 29.9078 36.0984 30.2417 35.0019L31.2239 31.7683L34.4575 30.7862C35.5578 30.4511 35.8991 29.0676 35.0903 28.2588ZM16.3609 34.5605L15.3783 31.3269C15.2309 30.8408 14.8527 30.4626 14.3668 30.3149L11.1331 29.3327L13.7506 26.7152C15.1723 28.8254 17.33 30.4004 19.8529 31.0687L16.3609 34.5605ZM14.8481 25.6175C11.0324 19.5411 15.4718 11.677 22.5745 11.677C29.7346 11.677 34.0824 19.5956 30.3009 25.6175C26.7205 31.3275 18.428 31.3268 14.8481 25.6175ZM30.7824 30.3148C30.2963 30.4626 29.9181 30.8408 29.7703 31.3268L28.7882 34.5604L25.2964 31.0686C27.8192 30.4003 29.9769 28.8253 31.3986 26.7151L34.0161 29.3326L30.7824 30.3148Z" fill="#322D2D"/>
<path d="M22.5724 13.1953C17.4902 13.1953 13.816 18.1285 15.3082 23.0066C16.5796 27.1727 21.0897 29.3862 25.124 27.9428C28.0624 26.8912 30.1666 24.08 30.1666 20.7895C30.1666 16.6021 26.7598 13.1953 22.5724 13.1953ZM18.4766 25.2721C14.3757 21.5291 17.0735 14.7141 22.5724 14.7141C26.3148 14.7141 29.1635 18.0816 28.5723 21.7423C27.8285 26.4875 22.0529 28.5448 18.4766 25.2721Z" fill="#322D2D"/>
<path d="M24.8788 18.7356L21.5314 21.2203L20.3718 19.9847C20.0847 19.6788 19.6042 19.6636 19.2983 19.9507C18.9925 20.2377 18.9772 20.7183 19.2643 21.0241L20.8869 22.7531C21.151 23.0345 21.5839 23.0728 21.8933 22.8432L25.7841 19.9552C26.1209 19.7053 26.1912 19.2295 25.9412 18.8927C25.6913 18.556 25.2156 18.4856 24.8788 18.7356Z" fill="#322D2D"/>
<circle cx="22.577" cy="20.9598" r="7.92072" fill="#F9F9F9"/>
<path d="M16.6153 20.5803C16.6153 21.3477 16.8483 22.1769 17.8076 22.1769C18.7327 22.1769 18.9451 21.5259 18.9588 21.1627H17.8144V20.3404H19.8633V22.9375H19.0068V22.4852C18.6984 22.8279 18.2667 23.0129 17.7391 23.0129C16.1356 23.0129 15.6148 21.7932 15.6148 20.5529C15.6148 19.4085 16.1767 18.0655 17.8213 18.0655C19.2603 18.0655 19.7057 19.0728 19.7126 19.6826H18.7258C18.7121 19.34 18.4654 18.9014 17.7939 18.9014C17.0607 18.9014 16.6153 19.4839 16.6153 20.5803ZM23.0708 21.6287L24.0369 18.1408H25.5239V22.9375H24.5783V19.3674L23.5641 22.9375H22.5774L21.5632 19.3674V22.9375H20.6176V18.1408H22.1046L23.0708 21.6287ZM30.0118 19.6826C30.0118 20.1143 29.8748 20.4912 29.6212 20.7721C29.3334 21.0942 28.8743 21.2929 28.3124 21.2929H27.2914V22.9375H26.3458V18.1408H28.47C29.3129 18.1408 30.0118 18.7164 30.0118 19.6826ZM29.0251 19.71C29.0251 19.2989 28.8126 18.9563 28.1959 18.9563H27.2914V20.4775H28.1754C28.8195 20.4775 29.0251 20.1006 29.0251 19.71Z" fill="#322D2D"/>
</g>
<defs>
<clipPath id="clip0_625_1881">
<rect width="25.9223" height="25.9223" fill="white" transform="translate(9.61719 10.1582)"/>
</clipPath>
</defs>
</svg>
