<svg width="45" height="46" viewBox="0 0 45 46" fill="none" xmlns="http://www.w3.org/2000/svg">
<circle cx="22.6423" cy="23.1189" r="21.242" stroke="#322D2D" stroke-width="2.16"/>
<g clip-path="url(#clip0_625_1873)">
<path d="M32.5236 23.5527L30.2559 17.14C29.2079 14.1771 26.5313 12.1097 23.4482 11.8015V10.1582H21.8449V11.8015C18.7619 12.1097 16.0852 14.1771 15.0372 17.14L12.7695 23.5526C12.373 24.6739 12.1719 25.8492 12.1719 27.046C12.1719 32.8218 16.8708 37.5207 22.6466 37.5207C28.4224 37.5207 33.1213 32.8218 33.1213 27.046C33.1213 25.8491 32.9202 24.6738 32.5236 23.5527ZM22.6466 35.9174C17.7548 35.9174 13.7751 31.9377 13.7751 27.046C13.7751 26.0318 13.9454 25.0363 14.281 24.0872L16.5487 17.6746C17.4606 15.0967 19.9111 13.3647 22.6466 13.3647C25.3821 13.3647 27.8326 15.0967 28.7444 17.6745L31.0121 24.0873C31.3478 25.0363 31.518 26.0318 31.518 27.046C31.518 31.9377 27.5383 35.9174 22.6466 35.9174Z" fill="#322D2D"/>
<path d="M22.6493 21.3809C19.5256 21.3809 16.9844 23.9221 16.9844 27.0457C16.9844 30.1693 19.5256 32.7106 22.6493 32.7106C25.7729 32.7106 28.3142 30.1693 28.3142 27.0457C28.3142 23.9221 25.7729 21.3809 22.6493 21.3809ZM22.6493 31.1074C20.4097 31.1074 18.5876 29.2853 18.5876 27.0457C18.5876 24.8062 20.4097 22.9841 22.6493 22.9841C24.8888 22.9841 26.7109 24.8062 26.7109 27.0457C26.7109 29.2853 24.8888 31.1074 22.6493 31.1074Z" fill="#322D2D"/>
</g>
<defs>
<clipPath id="clip0_625_1873">
<rect width="27.3625" height="27.3625" fill="white" transform="translate(8.96484 10.1582)"/>
</clipPath>
</defs>
</svg>
