<svg width="45" height="46" viewBox="0 0 45 46" fill="none" xmlns="http://www.w3.org/2000/svg">
<circle cx="22.5095" cy="23.1189" r="21.2419" stroke="#322D2D" stroke-width="2.1602"/>
<g clip-path="url(#clip0_625_1892)">
<path d="M35.0278 28.2588L32.1167 25.3477C35.4558 18.341 30.3235 10.1582 22.512 10.1582C14.7141 10.1582 9.56158 18.3269 12.9073 25.3477L9.99623 28.2588C9.18606 29.069 9.53054 30.4516 10.6291 30.7862L13.8627 31.7683L14.8449 35.0019C15.1781 36.0961 16.5579 36.4477 17.3723 35.6348L21.622 31.3851C22.2062 31.4335 22.7979 31.4351 23.4021 31.3851L27.6518 35.6348C28.4633 36.4462 29.8453 36.0984 30.1792 35.0019L31.1614 31.7683L34.395 30.7862C35.4953 30.4511 35.8366 29.0676 35.0278 28.2588ZM16.2984 34.5605L15.3158 31.3269C15.1684 30.8408 14.7902 30.4626 14.3043 30.3149L11.0706 29.3327L13.6881 26.7152C15.1098 28.8254 17.2675 30.4004 19.7904 31.0687L16.2984 34.5605ZM14.7856 25.6175C10.9699 19.5411 15.4093 11.677 22.512 11.677C29.6721 11.677 34.0199 19.5956 30.2384 25.6175C26.658 31.3275 18.3655 31.3268 14.7856 25.6175ZM30.7199 30.3148C30.2338 30.4626 29.8556 30.8408 29.7078 31.3268L28.7257 34.5604L25.2339 31.0686C27.7567 30.4003 29.9144 28.8253 31.3361 26.7151L33.9536 29.3326L30.7199 30.3148Z" fill="#322D2D"/>
<path d="M22.5099 13.1953C17.4277 13.1953 13.7535 18.1285 15.2457 23.0066C16.5171 27.1727 21.0272 29.3862 25.0615 27.9428C27.9999 26.8912 30.1041 24.08 30.1041 20.7895C30.1041 16.6021 26.6973 13.1953 22.5099 13.1953ZM18.4141 25.2721C14.3132 21.5291 17.011 14.7141 22.5099 14.7141C26.2523 14.7141 29.101 18.0816 28.5098 21.7423C27.766 26.4875 21.9904 28.5448 18.4141 25.2721Z" fill="#322D2D"/>
<path d="M24.8163 18.7356L21.4689 21.2203L20.3093 19.9847C20.0222 19.6788 19.5417 19.6636 19.2358 19.9507C18.93 20.2377 18.9147 20.7183 19.2018 21.0241L20.8244 22.7531C21.0885 23.0345 21.5214 23.0728 21.8308 22.8432L25.7216 19.9552C26.0584 19.7053 26.1287 19.2295 25.8787 18.8927C25.6288 18.556 25.1531 18.4856 24.8163 18.7356Z" fill="#322D2D"/>
<circle cx="22.5106" cy="20.9598" r="7.92072" fill="#F9F9F9"/>
<path d="M20.3736 22.9375H19.2224L17.4065 19.5661V22.9375H16.4608V18.1408H17.66L19.4348 21.4848V18.1408H20.3736V22.9375ZM24.8167 21.4505C24.8167 22.5058 24.0492 23.0129 22.8569 23.0129C21.7879 23.0129 21.0205 22.4989 20.9931 21.4231H21.9729C21.9729 21.9508 22.3087 22.2111 22.898 22.2111C23.3023 22.2111 23.8642 22.1015 23.8642 21.5602C23.8642 20.7721 22.2402 21.1422 21.4796 20.4706C21.2534 20.2719 21.0753 19.9499 21.0753 19.4839C21.0753 18.5383 21.9181 18.0655 22.8432 18.0655C23.8025 18.0655 24.6591 18.4149 24.7345 19.5661H23.7614C23.734 19.3057 23.6586 18.8466 22.8638 18.8466C22.3156 18.8466 22.0415 19.0728 22.0415 19.4154C22.0415 20.1349 23.2749 19.9499 24.104 20.3542C24.4946 20.5392 24.8167 20.8475 24.8167 21.4505ZM28.7313 18.9837H26.3467V20.2514H28.5669V21.1079H26.3467V22.9375H25.4011V18.1408H28.7313V18.9837Z" fill="#322D2D"/>
</g>
<defs>
<clipPath id="clip0_625_1892">
<rect width="25.9223" height="25.9223" fill="white" transform="translate(9.54688 10.1582)"/>
</clipPath>
</defs>
</svg>
