<svg width="46" height="46" viewBox="0 0 46 46" fill="none" xmlns="http://www.w3.org/2000/svg">
<circle cx="22.7087" cy="23.1189" r="21.242" stroke="#322D2D" stroke-width="2.16"/>
<g clip-path="url(#clip0_697_226)">
<path d="M31.7836 10.6191C31.4086 10.6459 31.0604 10.8424 30.9265 11.1995C30.3015 12.8692 27.7746 13.9674 25.1049 15.1193C20.0333 17.3157 13.1135 20.3069 15.0689 29.825C13.7385 31.2804 12.6581 33.1197 12.1313 35.6644C12.0331 36.1466 12.3456 36.6198 12.8278 36.718C12.8903 36.727 12.9528 36.7359 13.0064 36.7359C13.4171 36.7359 13.7921 36.4502 13.8814 36.0216C14.31 33.968 15.1225 32.459 16.1761 31.2358C17.2922 31.9501 19.5958 33.1644 22.4709 33.1644C24.5245 33.1644 26.8728 32.5483 29.2836 30.7C36.9891 24.7892 32.7837 11.7799 32.6051 11.2263C32.4979 10.8691 32.1676 10.6191 31.7836 10.6191ZM28.2121 29.2803C23.5334 32.8697 19.2744 31.0483 17.4886 29.9589C18.6047 29.0036 19.8726 28.2178 21.1762 27.4232C23.7745 25.8249 26.4621 24.1731 27.6942 20.9766C27.8728 20.5123 27.6407 20.0033 27.1853 19.8247C26.721 19.6462 26.2121 19.8783 26.0335 20.3337C25.0156 22.9677 22.6941 24.3874 20.2476 25.8963C19.0601 26.6285 17.8101 27.3964 16.6493 28.3428C15.6939 21.1462 20.828 18.914 25.8281 16.7532C27.9978 15.8157 30.0782 14.9139 31.4086 13.6103C32.2211 17.2354 33.3372 25.3427 28.2121 29.2803Z" fill="#322D2D"/>
</g>
<defs>
<clipPath id="clip0_697_226">
<rect width="27.3625" height="27.3625" fill="white" transform="translate(9.03125 10.1582)"/>
</clipPath>
</defs>
</svg>
